<?xml version="1.0" standalone="no"?>
<!DOCTYPE svg PUBLIC "-//W3C//DTD SVG 20010904//EN"
 "http://www.w3.org/TR/2001/REC-SVG-20010904/DTD/svg10.dtd">
<svg version="1.0" xmlns="http://www.w3.org/2000/svg"
 width="120.000000pt" height="120.000000pt" viewBox="0 0 120.000000 120.000000"
 preserveAspectRatio="xMidYMid meet">
<metadata>
Created by potrace 1.11, written by Peter Selinger 2001-2013
</metadata>
<g transform="translate(0.000000,120.000000) scale(0.100000,-0.100000)"
fill="#000000" stroke="none">
<path d="M671 1061 c-10 -7 -14 -25 -12 -63 2 -48 -26 -193 -50 -255 -15 -40
-104 -138 -157 -173 -50 -33 -80 -34 -116 -2 -42 39 -1 179 65 220 28 18 37 7
15 -17 -21 -23 -18 -50 7 -65 15 -9 23 -6 43 17 77 89 -40 165 -131 85 -99
-86 -113 -258 -24 -303 59 -31 115 -15 203 59 46 38 49 39 43 16 -48 -183 -88
-373 -83 -394 25 -101 169 -40 238 101 56 115 38 221 -52 297 -25 20 -29 30
-24 51 8 32 50 51 163 74 50 10 86 22 89 30 4 12 -10 13 -75 8 -44 -3 -92 -11
-108 -17 -15 -6 -30 -9 -32 -6 -2 2 14 63 36 136 23 72 41 149 41 171 0 37 -1
39 -32 39 -18 0 -39 -4 -47 -9z m-7 -576 c34 -71 10 -169 -57 -234 -17 -17
-40 -31 -50 -31 -23 0 -23 -5 24 198 30 128 32 133 49 117 10 -9 26 -32 34
-50z"/>
</g>
</svg>
